<svg width="50" height="43" viewBox="0 0 50 43" fill="none" xmlns="http://www.w3.org/2000/svg">
<path d="M1.15869 19C0.182251 19 -0.215341 17.7441 0.583199 17.1822L23.849 0.809954C24.5394 0.324105 25.4606 0.324104 26.151 0.809954L49.4168 17.1822C50.2153 17.7441 49.8177 19 48.8413 19H43V41C43 42.1046 42.1046 43 41 43H9C7.89543 43 7 42.1046 7 41V19H1.15869Z" fill="#D3EB1E"/>
<path d="M24.4248 1.62793C24.77 1.38512 25.23 1.38512 25.5752 1.62793L48.8408 18H42V41C42 41.5523 41.5523 42 41 42H9C8.44772 42 8 41.5523 8 41V18H1.15918L24.4248 1.62793Z" stroke="black" stroke-opacity="0.05" stroke-width="2"/>
</svg>
