<svg width="115" height="31" viewBox="0 0 115 31" fill="none" xmlns="http://www.w3.org/2000/svg">
<path d="M20.3857 17.996C21.1377 17.996 21.8822 18.1164 22.6182 18.3564C23.354 18.5964 23.9624 18.9323 24.4424 19.3642L23.5537 21.4521C23.1377 21.0841 22.6656 20.8042 22.1377 20.6122C21.6259 20.4203 21.1302 20.3242 20.6504 20.3242C19.6104 20.3242 18.8016 20.6516 18.2256 21.3076C17.6656 21.9476 17.3857 22.8683 17.3857 24.0683C17.3858 25.252 17.6658 26.188 18.2256 26.8759C18.8016 27.5479 19.6104 27.8837 20.6504 27.8837C21.1142 27.8837 21.6099 27.7876 22.1377 27.5956C22.6656 27.4037 23.1378 27.1162 23.5537 26.7324L24.4424 28.8437C23.9624 29.2597 23.3457 29.5965 22.5938 29.8525C21.8579 30.0924 21.1216 30.2119 20.3857 30.2119C19.1538 30.2118 18.0819 29.9637 17.1699 29.4677C16.258 28.9557 15.5536 28.2355 15.0576 27.3076C14.5618 26.3797 14.3145 25.2917 14.3145 24.0439C14.3145 22.796 14.5617 21.724 15.0576 20.8281C15.5536 19.9161 16.258 19.2202 17.1699 18.7402C18.0819 18.2442 19.1538 17.9961 20.3857 17.996ZM31.3994 17.996C32.6154 17.996 33.6724 18.2442 34.5684 18.7402C35.4642 19.2362 36.1603 19.9406 36.6562 20.8525C37.152 21.7643 37.4004 22.8441 37.4004 24.0917C37.4004 25.3397 37.1523 26.4284 36.6562 27.3564C36.1603 28.2682 35.4641 28.9718 34.5684 29.4677C33.6724 29.9637 32.6154 30.2119 31.3994 30.2119C30.1836 30.2118 29.1273 29.9636 28.2314 29.4677C27.3357 28.9718 26.6395 28.2682 26.1436 27.3564C25.6476 26.4284 25.4004 25.3397 25.4004 24.0917C25.4004 22.8441 25.6478 21.7643 26.1436 20.8525C26.6395 19.9406 27.3356 19.2362 28.2314 18.7402C29.1273 18.2442 30.1836 17.9961 31.3994 17.996ZM98.4854 17.996C99.0453 17.996 99.5892 18.052 100.117 18.164C100.645 18.26 101.141 18.4121 101.605 18.6201C102.085 18.812 102.502 19.0677 102.854 19.3876L102.037 21.3564C101.733 21.1004 101.381 20.8839 100.981 20.7079C100.582 20.516 100.165 20.3723 99.7334 20.2763C99.3174 20.1643 98.9088 20.1083 98.5088 20.1083C97.725 20.1084 97.1408 20.2436 96.7568 20.5156C96.3889 20.7875 96.2052 21.1478 96.2051 21.5956C96.2051 21.9316 96.317 22.2125 96.541 22.4365C96.765 22.6604 97.1093 22.8125 97.5732 22.8925L99.9736 23.3476C101.013 23.5396 101.797 23.8923 102.325 24.4042C102.869 24.9162 103.142 25.6039 103.142 26.4677C103.142 27.2517 102.934 27.9243 102.518 28.4843C102.102 29.0442 101.517 29.4762 100.766 29.7802C100.014 30.0682 99.133 30.2119 98.125 30.2119C97.4691 30.2118 96.829 30.1559 96.2051 30.0439C95.5972 29.9319 95.0373 29.7798 94.5254 29.5878C94.0136 29.3799 93.5656 29.1241 93.1816 28.8203L93.9492 26.8525C94.3492 27.1084 94.7812 27.3324 95.2451 27.5244C95.7091 27.7163 96.1896 27.86 96.6855 27.956C97.1814 28.0519 97.6695 28.0995 98.1494 28.0995C98.9173 28.0995 99.4856 27.9717 99.8535 27.7158C100.237 27.4438 100.429 27.0919 100.429 26.6601C100.429 26.2921 100.301 26.0123 100.045 25.8203C99.805 25.6123 99.4372 25.4602 98.9414 25.3642L96.541 24.9081C95.5491 24.7161 94.7887 24.356 94.2607 23.8281C93.7489 23.2841 93.4932 22.588 93.4932 21.7402C93.4932 20.9722 93.7012 20.308 94.1172 19.748C94.5492 19.188 95.1416 18.7561 95.8936 18.4521C96.6455 18.1482 97.5095 17.996 98.4854 17.996ZM12.2559 15.4999H3.95215V20.1562H11.7275V22.6044H3.95215V27.5244H12.2559V29.9716H1V13.0517H12.2559V15.4999ZM53.124 15.6201H47.3164V29.9716H44.2441V15.6201H38.4365V13.0517H53.124V15.6201ZM57.8818 26.4794L60.916 18.2363H63.0283L66.04 26.541L69.0518 18.2363H71.9561L67.3477 29.9716H64.7324L61.8701 22.413L59.0684 29.9716H56.4521L51.8203 18.2363H54.8916L57.8818 26.4794ZM76.6729 29.9716H73.6729V18.2363H76.6729V29.9716ZM86.6299 17.996C87.5739 17.996 88.35 18.1724 88.958 18.5244C89.5659 18.8763 90.0222 19.4119 90.3262 20.1318C90.6302 20.8358 90.7822 21.7323 90.7822 22.8203V29.9716H87.7822V22.9638C87.7822 22.3561 87.7019 21.8604 87.542 21.4765C87.398 21.0925 87.1657 20.8117 86.8457 20.6357C86.5418 20.4438 86.1497 20.3476 85.6699 20.3476C85.094 20.3476 84.5902 20.4764 84.1582 20.7324C83.7263 20.9723 83.3904 21.3241 83.1504 21.788C82.9104 22.236 82.79 22.764 82.79 23.372V29.9716H79.79V18.2363H82.7178V20.0566C83.058 19.468 83.5128 19.0043 84.0859 18.6679C84.8379 18.2199 85.6859 17.9961 86.6299 17.996ZM31.3994 20.2763C30.5037 20.2764 29.7841 20.5964 29.2402 21.2363C28.6963 21.8602 28.4239 22.8119 28.4238 24.0917C28.4238 25.3557 28.6963 26.3156 29.2402 26.9716C29.7841 27.6115 30.5036 27.9315 31.3994 27.9316C32.2954 27.9316 33.0156 27.6116 33.5596 26.9716C34.1035 26.3156 34.376 25.3557 34.376 24.0917C34.3759 22.8119 34.1035 21.8602 33.5596 21.2363C33.0156 20.5963 32.2954 20.2763 31.3994 20.2763ZM107.775 13.6913H105.995V18.2997H104.908V13.6913H103.142V12.788H107.775V13.6913ZM111.4 16.2324L113.326 12.788H114.189V18.2997H113.234V14.6874L111.677 17.4482H111.113L109.556 14.707V18.2997H108.6V12.788H109.464L111.4 16.2324ZM76.8408 15.7158H73.4814V12.788H76.8408V15.7158Z" fill="#00182A"/>
<path d="M20.3857 17.996C21.1377 17.996 21.8822 18.1164 22.6182 18.3564C23.354 18.5964 23.9624 18.9323 24.4424 19.3642L23.5537 21.4521C23.1377 21.0841 22.6656 20.8042 22.1377 20.6122C21.6259 20.4203 21.1302 20.3242 20.6504 20.3242C19.6104 20.3242 18.8016 20.6516 18.2256 21.3076C17.6656 21.9476 17.3857 22.8683 17.3857 24.0683C17.3858 25.252 17.6658 26.188 18.2256 26.8759C18.8016 27.5479 19.6104 27.8837 20.6504 27.8837C21.1142 27.8837 21.6099 27.7876 22.1377 27.5956C22.6656 27.4037 23.1378 27.1162 23.5537 26.7324L24.4424 28.8437C23.9624 29.2597 23.3457 29.5965 22.5938 29.8525C21.8579 30.0924 21.1216 30.2119 20.3857 30.2119C19.1538 30.2118 18.0819 29.9637 17.1699 29.4677C16.258 28.9557 15.5536 28.2355 15.0576 27.3076C14.5618 26.3797 14.3145 25.2917 14.3145 24.0439C14.3145 22.796 14.5617 21.724 15.0576 20.8281C15.5536 19.9161 16.258 19.2202 17.1699 18.7402C18.0819 18.2442 19.1538 17.9961 20.3857 17.996ZM31.3994 17.996C32.6154 17.996 33.6724 18.2442 34.5684 18.7402C35.4642 19.2362 36.1603 19.9406 36.6562 20.8525C37.152 21.7643 37.4004 22.8441 37.4004 24.0917C37.4004 25.3397 37.1523 26.4284 36.6562 27.3564C36.1603 28.2682 35.4641 28.9717 34.5684 29.4677C33.6724 29.9637 32.6154 30.2119 31.3994 30.2119C30.1836 30.2118 29.1273 29.9636 28.2314 29.4677C27.3357 28.9717 26.6395 28.2682 26.1436 27.3564C25.6476 26.4284 25.4004 25.3397 25.4004 24.0917C25.4004 22.8441 25.6478 21.7643 26.1436 20.8525C26.6395 19.9406 27.3356 19.2362 28.2314 18.7402C29.1273 18.2442 30.1836 17.9961 31.3994 17.996ZM12.2559 15.4999H3.95215V20.1562H11.7275V22.6044H3.95215V27.5244H12.2559V29.9716H1V13.0517H12.2559V15.4999ZM31.3994 20.2763C30.5037 20.2764 29.7841 20.5964 29.2402 21.2363C28.6963 21.8602 28.4239 22.8119 28.4238 24.0917C28.4238 25.3557 28.6963 26.3156 29.2402 26.9716C29.7841 27.6115 30.5036 27.9315 31.3994 27.9316C32.2954 27.9316 33.0156 27.6116 33.5596 26.9716C34.1035 26.3156 34.376 25.3557 34.376 24.0917C34.3759 22.8119 34.1035 21.8602 33.5596 21.2363C33.0156 20.5963 32.2954 20.2763 31.3994 20.2763Z" fill="#00182A"/>
<path d="M46.1563 0.237267C46.5176 0.126031 46.8602 0.447987 46.7621 0.813071C44.8684 7.86218 39.802 9.30994 35.9546 11.4222C35.7682 11.5245 35.5678 11.311 35.6933 11.1393C37.6328 8.48623 40.7614 5.76144 42.616 4.35645C35.2406 9.74164 32.8876 12.8127 31.908 15.2344C31.7773 15.5121 31.6623 15.8071 31.5643 16.1212C31.5019 16.3215 31.1541 16.3401 31.0576 16.1538C29.3924 12.9427 24.0461 13.3302 23.7106 8.37966C23.692 8.10415 23.9194 7.87697 24.195 7.89451C27.5878 8.11046 29.3291 10.5561 31.3611 14.542C32.7106 9.54158 35.9322 3.38509 46.1563 0.237267Z" fill="#00182A"/>
</svg>
